{"glyphs":{":":{"x_min":0,"x_max":165,"ha":165,"o":"m 128 475 l 128 341 l 35 341 l 35 475 z m 128 133 l 128 0 l 35 0 l 35 133 z"},"$":{"x_min":0,"x_max":357,"ha":357,"o":"m 291 657 l 291 432 l 207 432 q 207 492 173 492 q 138 492 138 458 q 138 434 178 402 l 205 380 l 248 350 q 309 304 309 154 q 309 -2 206 -2 l 206 -45 l 158 -45 l 158 15 q 146 24 140 39 l 140 10 l 56 10 l 56 251 l 140 251 q 140 171 182 171 q 219 171 219 219 q 219 264 167 297 l 136 317 q 48 375 48 505 q 48 666 147 666 l 147 708 l 195 708 l 195 657 q 203 646 207 631 l 207 657 z"},"?":{"x_min":0,"x_max":273,"ha":273,"o":"m 167 133 l 167 0 l 73 0 l 73 133 z m 144 191 l 88 191 q 87 205 87 210 q 87 283 139 345 q 170 383 170 436 q 170 499 133 499 q 89 499 95 432 l 98 402 q 98 400 98 391 l 29 391 q 23 440 23 477 q 23 676 142 676 q 253 676 253 468 q 253 350 197 307 q 150 271 147 225 l 145 200 z"},"<":{"x_min":0,"x_max":433,"ha":433,"o":"m 433 573 l 433 496 l 83 335 l 433 174 l 433 97 l 0 302 l 0 369 z"},"'":{"x_min":0,"x_max":182,"ha":182,"o":"m 133 667 l 133 557 l 108 400 l 68 400 l 49 564 l 49 667 z"},"=":{"x_min":0,"x_max":357,"ha":357,"o":"m 78 403 l 278 403 l 278 356 l 78 356 z m 78 310 l 278 310 l 278 263 l 78 263 z"},"a":{"x_min":0,"x_max":253,"ha":253,"o":"m 246 144 l 246 6 q 226 -6 206 -6 q 163 -6 144 41 q 127 -6 89 -6 q 20 -6 20 159 q 20 246 100 291 q 140 312 140 338 q 140 370 116 370 q 90 370 90 332 q 90 324 92 308 l 25 308 q 18 340 18 383 q 18 503 120 503 q 214 503 214 379 l 214 340 l 214 198 q 214 139 234 139 q 238 139 246 144 z m 144 242 q 84 212 84 173 q 84 139 113 139 q 144 139 144 199 z"},"L":{"x_min":0,"x_max":307,"ha":307,"o":"m 295 308 l 295 0 l 20 0 l 20 178 l 53 178 l 53 496 l 20 496 l 20 667 l 181 667 l 181 496 l 146 496 l 146 178 l 211 178 l 211 308 z"},"3":{"x_min":0,"x_max":357,"ha":357,"o":"m 301 667 l 301 496 l 208 371 l 214 371 q 307 371 307 208 q 307 84 279 37 q 251 -11 180 -11 q 51 -11 51 173 q 51 221 56 269 l 140 269 l 140 259 q 140 178 174 178 q 207 178 207 248 q 207 322 174 319 q 162 318 152 302 l 109 336 l 231 496 l 140 496 l 140 433 l 63 433 l 63 667 z"},";":{"x_min":0,"x_max":164,"ha":164,"o":"m 128 475 l 128 341 l 35 341 l 35 475 z m 128 140 l 128 40 q 128 -108 35 -117 l 35 -63 q 69 -49 69 0 l 35 0 l 35 140 z"},"J":{"x_min":0,"x_max":281,"ha":281,"o":"m 268 667 l 268 496 l 235 496 l 235 237 l 236 169 l 235 120 q 235 -11 125 -11 q 2 -11 2 163 q 2 239 12 299 l 97 299 q 92 262 92 233 q 92 178 117 178 q 142 178 142 212 l 142 247 l 142 496 l 106 496 l 106 667 z"},"V":{"x_min":0,"x_max":312,"ha":312,"o":"m 305 667 l 305 496 l 281 496 l 217 0 l 105 0 l 36 496 l 7 496 l 7 667 l 156 667 l 156 496 l 127 496 l 180 150 l 217 496 l 180 496 l 180 667 z"},"\"":{"x_min":0,"x_max":340,"ha":340,"o":"m 133 667 l 133 557 l 108 400 l 68 400 l 49 564 l 49 667 z m 291 667 l 291 557 l 266 400 l 227 400 l 208 564 l 208 667 z"},"7":{"x_min":0,"x_max":355,"ha":355,"o":"m 307 667 l 307 496 q 209 343 209 44 q 209 24 210 0 l 93 0 l 93 16 q 93 257 199 426 l 220 459 l 233 480 q 237 486 245 496 l 131 496 l 131 407 l 47 407 l 47 667 z"},"S":{"x_min":0,"x_max":285,"ha":285,"o":"m 256 667 l 256 432 l 167 432 l 166 449 q 163 495 140 495 q 113 495 113 460 q 113 420 160 391 q 235 344 255 305 q 275 267 275 169 q 275 -11 184 -11 q 134 -11 104 47 l 104 0 l 21 0 l 21 253 l 104 253 l 104 244 q 104 178 139 178 q 171 178 171 224 q 171 272 135 297 l 86 331 q 13 381 13 496 q 13 678 102 678 q 146 678 172 620 l 172 667 z"},"}":{"x_min":0,"x_max":356,"ha":356,"o":"m 256 274 l 256 221 q 225 217 225 173 l 225 -52 q 225 -171 135 -171 l 97 -171 l 97 -37 l 124 -37 q 155 -37 155 14 l 155 201 q 155 229 182 248 q 155 267 155 294 l 155 481 q 155 532 124 532 l 97 532 l 97 667 l 135 667 q 225 667 225 547 l 225 322 q 225 279 256 274 z"},"Z":{"x_min":0,"x_max":289,"ha":289,"o":"m 269 667 l 269 490 l 106 178 l 186 178 l 186 271 l 269 271 l 269 0 l 9 0 l 9 178 l 174 496 l 99 496 l 99 417 l 22 417 l 22 667 z"},"x":{"x_min":0,"x_max":279,"ha":279,"o":"m 266 496 l 266 363 l 243 363 l 183 255 l 249 140 l 272 140 l 272 0 l 147 0 l 147 140 l 175 140 l 132 210 l 88 140 l 117 140 l 117 0 l 7 0 l 7 140 l 30 140 l 94 255 l 30 363 l 7 363 l 7 496 l 132 496 l 132 363 l 103 363 l 147 297 l 183 363 l 156 363 l 156 496 z"},")":{"x_min":0,"x_max":312,"ha":312,"o":"m 23 -158 l 23 -148 q 28 -144 30 -142 l 39 -134 q 157 -21 157 274 q 157 554 23 679 l 23 690 q 269 575 269 266 q 269 -52 23 -158 z"},"&":{"x_min":0,"x_max":444,"ha":444,"o":"m 425 470 l 425 363 l 395 363 q 377 262 329 172 l 322 158 q 365 57 425 42 l 425 0 l 283 0 l 262 57 q 214 -11 159 -11 q 23 -11 23 198 q 23 349 114 404 l 124 410 q 125 411 129 414 l 115 454 q 99 498 99 537 q 99 677 213 677 q 319 677 319 560 q 319 469 224 399 l 289 231 q 322 284 336 363 l 315 363 l 315 470 z m 226 156 l 156 345 q 113 306 113 246 q 113 134 178 134 q 207 134 226 156 z m 200 453 q 236 480 236 512 q 236 544 208 544 q 183 544 183 513 q 183 494 200 453 z"},"_":{"x_min":0,"x_max":500,"ha":500,"o":"m 0 -76 l 500 -76 l 500 -123 l 0 -123 z"},"v":{"x_min":0,"x_max":250,"ha":250,"o":"m 243 496 l 243 363 l 220 363 l 172 0 l 89 0 l 30 363 l 7 363 l 7 496 l 125 496 l 125 363 l 99 363 l 135 125 l 166 363 l 145 363 l 145 496 z"},"O":{"x_min":0,"x_max":304,"ha":304,"o":"m 22 253 l 22 401 q 22 569 48 623 q 74 677 155 677 q 230 677 256 621 q 281 565 281 400 l 281 253 q 281 101 254 45 q 227 -11 151 -11 q 75 -11 49 43 q 22 96 22 253 z m 121 399 l 121 275 q 121 178 153 178 q 183 178 183 276 l 183 403 l 182 432 l 182 452 q 180 494 152 494 q 121 494 121 399 z"},"(":{"x_min":0,"x_max":312,"ha":312,"o":"m 289 690 l 289 681 q 284 676 282 674 l 274 667 q 155 554 155 258 q 155 -21 289 -146 l 289 -158 q 43 -42 43 266 q 43 584 289 690 z"},"C":{"x_min":0,"x_max":296,"ha":296,"o":"m 189 628 l 189 667 l 272 667 l 272 400 l 189 400 l 189 412 q 189 494 156 494 q 133 494 128 467 q 123 440 123 315 q 123 178 156 178 q 187 178 187 254 l 187 283 l 187 307 l 278 307 q 283 253 283 199 q 283 -11 156 -11 q 70 -11 46 49 q 22 109 22 327 q 22 538 42 608 q 62 677 123 677 q 167 677 189 628 z"},"W":{"x_min":0,"x_max":443,"ha":443,"o":"m 436 667 l 436 496 l 405 496 l 340 0 l 257 0 l 226 277 l 191 0 l 106 0 l 40 496 l 7 496 l 7 667 l 149 667 l 149 496 l 127 496 l 158 230 l 191 496 l 167 496 l 167 667 l 302 667 l 302 496 l 279 496 l 310 238 l 340 496 l 318 496 l 318 667 z"},"A":{"x_min":0,"x_max":332,"ha":332,"o":"m 325 178 l 325 0 l 163 0 l 163 178 l 198 178 l 188 269 l 115 269 l 104 178 l 142 178 l 142 0 l 7 0 l 7 178 l 38 178 l 104 667 l 228 667 l 296 178 z m 178 337 l 151 542 l 124 337 z"},"f":{"x_min":0,"x_max":170,"ha":170,"o":"m 170 664 l 170 556 q 156 560 147 560 q 107 560 107 519 q 107 510 111 496 l 156 496 l 156 363 l 104 363 l 104 140 l 142 140 l 142 0 l 7 0 l 7 140 l 34 140 l 34 363 l 7 363 l 7 496 l 34 496 q 27 532 27 561 q 27 675 113 675 q 142 675 170 664 z"},"Q":{"x_min":0,"x_max":310,"ha":310,"o":"m 310 178 l 310 -9 q 275 -9 248 20 q 247 22 243 25 q 211 -11 158 -11 q 75 -11 49 46 q 22 103 22 285 l 22 405 q 22 569 50 623 q 77 677 159 677 q 236 677 260 625 q 284 572 284 400 l 284 354 l 283 312 l 282 269 q 282 239 277 188 q 292 178 302 178 q 306 178 310 178 z m 122 294 q 137 305 154 305 q 169 305 185 294 q 187 326 187 374 q 187 494 152 494 q 119 494 119 374 q 119 327 122 294 z m 188 198 q 177 238 153 238 q 123 238 123 201 q 123 166 153 166 q 176 166 188 198 z"},"w":{"x_min":0,"x_max":401,"ha":401,"o":"m 394 496 l 394 363 l 369 363 l 312 0 l 239 0 l 208 270 l 171 0 l 92 0 l 33 363 l 7 363 l 7 496 l 125 496 l 125 363 l 101 363 l 136 114 l 171 363 l 146 363 l 146 496 l 271 496 l 271 363 l 248 363 l 280 114 l 312 363 l 289 363 l 289 496 z"},"-":{"x_min":0,"x_max":125,"ha":125,"o":"m 125 306 l 125 233 l 0 233 l 0 306 z"},"E":{"x_min":0,"x_max":312,"ha":312,"o":"m 288 667 l 288 400 l 210 400 l 210 496 l 145 496 l 145 376 l 227 376 l 227 308 l 145 308 l 145 178 l 210 178 l 210 275 l 294 275 l 294 0 l 20 0 l 20 178 l 52 178 l 52 496 l 20 496 l 20 667 z"},"s":{"x_min":0,"x_max":223,"ha":223,"o":"m 199 496 l 199 304 l 143 304 l 143 317 q 143 369 106 369 q 77 369 77 340 q 77 316 103 302 l 139 281 q 211 239 211 149 q 211 -6 141 -6 q 95 -6 76 46 l 76 0 l 20 0 l 20 203 l 76 203 l 76 193 q 76 127 109 127 q 139 127 139 161 q 139 199 105 219 l 81 234 q 12 275 12 368 q 12 502 79 502 q 122 502 143 448 l 143 496 z"},">":{"x_min":0,"x_max":433,"ha":433,"o":"m 0 97 l 0 174 l 350 335 l 0 496 l 0 573 l 433 369 l 433 301 z"},"l":{"x_min":0,"x_max":149,"ha":149,"o":"m 113 140 l 142 140 l 142 0 l 17 0 l 17 140 l 43 140 l 43 533 l 17 533 l 17 667 l 113 667 z"},"8":{"x_min":0,"x_max":357,"ha":357,"o":"m 232 356 l 242 352 q 303 322 303 192 q 303 -11 176 -11 q 54 -11 54 186 q 54 325 125 356 q 62 386 62 507 q 62 677 179 677 q 295 677 295 520 q 295 383 232 356 z m 181 307 q 148 307 148 243 q 148 178 182 178 q 213 178 213 249 q 213 307 181 307 z m 178 494 q 151 494 151 450 q 151 395 180 395 q 206 395 206 447 q 206 494 178 494 z"},"\\":{"x_min":0,"x_max":333,"ha":333,"o":"m 27 667 l 104 667 l 336 -171 l 259 -171 z"},"e":{"x_min":0,"x_max":241,"ha":241,"o":"m 213 213 q 217 185 217 145 q 217 -6 124 -6 q 59 -6 40 45 q 21 96 21 272 q 21 406 42 455 q 63 503 121 503 q 178 503 199 453 q 220 403 220 269 l 219 236 l 96 236 l 96 187 l 97 163 q 101 138 122 139 q 146 140 146 186 l 146 202 l 146 213 z m 94 291 l 146 291 l 146 327 q 146 370 121 370 q 93 370 93 318 q 93 307 94 291 z"},"b":{"x_min":0,"x_max":256,"ha":256,"o":"m 102 667 l 102 456 q 123 503 163 503 q 207 503 221 462 q 235 421 235 295 l 235 199 q 235 -6 153 -6 q 104 -6 87 51 l 71 0 l 32 0 l 32 555 l 7 555 l 7 667 z m 137 370 q 105 370 105 243 q 105 127 136 127 q 161 127 161 183 l 161 225 l 162 262 l 161 299 l 161 332 q 161 370 137 370 z"},"%":{"x_min":0,"x_max":373,"ha":373,"o":"m 148 576 l 148 422 q 148 319 83 319 q 13 319 13 422 l 13 564 q 13 673 85 673 q 148 673 148 576 z m 70 540 l 70 456 l 70 444 l 71 432 q 72 419 81 419 q 92 419 92 459 l 92 540 q 92 575 81 575 q 70 575 70 540 z m 336 667 l 104 0 l 37 0 l 268 667 z m 359 250 l 359 96 q 359 -7 293 -7 q 224 -7 224 96 l 224 238 q 224 347 295 347 q 359 347 359 250 z m 280 214 l 280 130 l 280 118 l 281 106 q 283 93 291 93 q 303 93 303 133 l 303 214 q 303 249 292 249 q 280 249 280 214 z"},"m":{"x_min":0,"x_max":398,"ha":398,"o":"m 391 140 l 391 0 l 273 0 l 273 140 l 295 140 l 295 273 l 295 299 l 294 323 q 294 370 269 370 q 239 370 239 270 l 239 140 l 257 140 l 257 0 l 147 0 l 147 140 l 169 140 l 169 274 l 169 319 q 169 370 144 370 q 110 370 110 281 l 110 140 l 135 140 l 135 0 l 17 0 l 17 140 l 42 140 l 42 363 l 17 363 l 17 496 l 110 496 l 110 455 q 134 503 172 503 q 218 503 233 455 l 239 465 q 259 503 295 503 q 365 503 365 374 l 365 140 z"},"#":{"x_min":0,"x_max":276,"ha":276,"o":"m 182 490 l 207 667 l 264 667 l 239 490 l 274 490 l 261 393 l 225 393 l 208 273 l 244 273 l 230 177 l 194 177 l 170 0 l 113 0 l 138 177 l 94 177 l 69 0 l 12 0 l 37 177 l 1 177 l 14 273 l 50 273 l 67 393 l 32 393 l 45 490 l 81 490 l 105 667 l 163 667 l 138 490 z m 168 393 l 125 393 l 107 273 l 151 273 z"},",":{"x_min":0,"x_max":164,"ha":164,"o":"m 128 140 l 128 40 q 128 -108 35 -117 l 35 -63 q 69 -49 69 0 l 35 0 l 35 140 z"},"n":{"x_min":0,"x_max":276,"ha":276,"o":"m 269 140 l 269 0 l 151 0 l 151 140 l 171 140 l 171 282 l 171 300 l 171 322 q 171 370 148 370 q 110 370 110 279 l 110 140 l 135 140 l 135 0 l 17 0 l 17 140 l 43 140 l 43 363 l 17 363 l 17 496 l 110 496 l 110 436 q 136 503 181 503 q 241 503 241 400 l 241 363 l 241 140 z"},"h":{"x_min":0,"x_max":277,"ha":277,"o":"m 113 667 l 113 460 q 140 501 176 503 q 243 506 243 385 l 243 356 l 243 140 l 270 140 l 270 0 l 152 0 l 152 140 l 173 140 l 173 280 l 173 305 q 173 367 149 370 q 113 374 113 273 l 113 140 l 135 140 l 135 0 l 17 0 l 17 140 l 43 140 l 43 555 l 17 555 l 17 667 z"},"z":{"x_min":0,"x_max":230,"ha":230,"o":"m 216 496 l 216 363 l 85 140 l 160 140 l 160 203 l 216 203 l 216 0 l 10 0 l 10 147 l 146 363 l 74 363 l 74 304 l 17 304 l 17 496 z"},"B":{"x_min":0,"x_max":323,"ha":323,"o":"m 20 667 l 146 667 q 239 667 269 633 q 298 599 298 491 q 298 412 282 384 q 267 355 216 346 q 274 330 289 303 q 304 276 304 189 q 304 75 275 38 q 245 0 155 0 l 20 0 l 20 178 l 52 178 l 52 496 l 20 496 z m 146 496 l 146 380 l 163 380 q 202 380 202 439 q 202 496 161 496 z m 146 307 l 146 178 l 161 178 q 208 178 208 249 q 208 307 160 307 z"},"K":{"x_min":0,"x_max":348,"ha":348,"o":"m 327 667 l 327 496 l 292 496 l 229 391 l 310 178 l 337 178 l 337 0 l 192 0 l 192 178 l 218 178 l 168 311 l 145 264 l 145 178 l 168 178 l 168 0 l 20 0 l 20 178 l 52 178 l 52 496 l 20 496 l 20 667 l 168 667 l 168 496 l 145 496 l 145 373 l 223 496 l 192 496 l 192 667 z"},"R":{"x_min":0,"x_max":361,"ha":361,"o":"m 353 249 q 358 192 358 153 q 358 -5 283 -5 q 211 -5 211 159 l 212 203 l 212 248 q 212 308 155 308 q 153 308 146 307 l 146 178 l 181 178 l 181 0 l 20 0 l 20 178 l 53 178 l 53 496 l 20 496 l 20 667 l 171 667 q 253 667 281 631 q 309 596 309 491 q 309 363 231 345 q 228 344 220 342 q 287 331 290 282 l 292 236 l 294 200 q 296 172 310 172 q 330 172 330 238 l 330 249 z m 146 373 l 157 373 q 219 373 219 431 q 219 497 159 497 q 155 497 146 496 z"},"T":{"x_min":0,"x_max":309,"ha":309,"o":"m 302 667 l 302 372 l 245 372 l 245 496 l 202 496 l 202 178 l 234 178 l 234 0 l 72 0 l 72 178 l 109 178 l 109 496 l 64 496 l 64 372 l 7 372 l 7 667 z"},"P":{"x_min":0,"x_max":305,"ha":305,"o":"m 181 178 l 181 0 l 20 0 l 20 178 l 52 178 l 52 496 l 20 496 l 20 667 l 153 667 q 239 667 268 625 q 296 584 296 462 q 296 356 271 322 q 245 287 166 287 l 145 287 l 145 178 z m 145 496 l 145 360 l 152 360 l 165 360 q 207 360 207 425 q 207 496 158 496 z"},"|":{"x_min":0,"x_max":77,"ha":77,"o":"m 0 667 l 77 667 l 77 -167 l 0 -167 z"},"t":{"x_min":0,"x_max":169,"ha":169,"o":"m 148 496 l 148 363 l 103 363 l 103 193 l 104 168 q 104 126 131 126 q 144 126 162 139 l 162 6 q 127 -7 109 -7 q 32 -7 32 109 l 33 141 l 33 173 l 33 363 l 7 363 l 7 496 q 69 531 76 620 l 78 641 q 78 643 79 649 l 103 649 l 103 496 z"},"M":{"x_min":0,"x_max":464,"ha":464,"o":"m 445 667 l 445 496 l 412 496 l 412 178 l 445 178 l 445 0 l 291 0 l 291 178 l 319 178 l 319 542 l 243 0 l 204 0 l 122 537 l 122 178 l 154 178 l 154 0 l 20 0 l 20 178 l 52 178 l 52 496 l 20 496 l 20 667 l 190 667 l 234 361 l 278 667 z"},"g":{"x_min":0,"x_max":248,"ha":248,"o":"m 245 600 l 245 522 q 222 534 210 534 q 185 534 181 500 q 181 497 180 491 q 229 463 229 307 q 229 142 138 142 q 116 142 94 149 q 69 129 69 110 q 69 81 140 75 q 251 67 251 -49 q 251 -181 131 -181 q 7 -181 7 -73 q 7 -13 57 20 q 11 40 11 93 q 11 142 57 171 q 25 201 25 287 q 25 416 46 459 q 67 503 131 503 q 135 503 146 501 l 147 517 q 153 609 208 609 q 223 609 245 600 z m 126 403 q 97 403 97 322 q 97 242 127 242 q 157 242 157 326 q 157 403 126 403 z m 94 6 q 79 -19 79 -42 q 79 -91 131 -91 q 180 -91 180 -45 q 180 -3 125 2 q 108 3 94 6 z"},"j":{"x_min":0,"x_max":138,"ha":138,"o":"m 110 496 l 110 -1 q 110 -118 98 -149 q 86 -180 41 -180 q 21 -180 3 -173 l 3 -81 q 11 -82 15 -82 q 40 -82 40 -17 l 40 363 l 11 363 l 11 496 z m 107 667 l 107 555 l 37 555 l 37 667 z"},"i":{"x_min":0,"x_max":149,"ha":149,"o":"m 113 496 l 113 140 l 142 140 l 142 0 l 17 0 l 17 140 l 43 140 l 43 363 l 17 363 l 17 496 z m 108 667 l 108 555 l 39 555 l 39 667 z"},"y":{"x_min":0,"x_max":256,"ha":256,"o":"m 249 496 l 249 363 l 225 363 l 171 -20 q 148 -179 79 -179 q 7 -179 7 -80 q 7 -47 13 -10 l 59 -10 q 57 -24 57 -34 q 57 -63 78 -63 q 96 -63 106 -10 l 33 363 l 8 363 l 8 496 l 126 496 l 126 363 l 101 363 l 144 147 l 171 363 l 144 363 l 144 496 z"},"@":{"x_min":0,"x_max":388,"ha":388,"o":"m 359 138 q 317 -11 194 -11 q 98 -11 63 44 q 29 99 29 252 l 29 399 q 29 564 62 621 q 96 677 193 677 q 291 677 324 621 q 357 565 357 397 l 357 270 q 357 164 264 164 l 202 164 l 203 183 q 181 160 161 160 q 117 160 117 242 q 117 265 118 285 l 122 361 q 130 506 185 506 q 212 506 230 466 l 247 502 l 267 502 l 252 226 l 271 226 q 309 226 309 287 l 309 393 q 309 539 286 585 q 263 632 191 632 q 122 632 100 585 q 77 538 77 394 l 77 258 q 77 121 99 77 q 122 34 193 34 q 277 34 310 138 z m 169 365 l 167 313 l 167 301 l 167 287 q 167 274 168 266 q 170 250 183 250 q 211 250 211 366 q 211 417 190 417 q 172 417 169 365 z"},".":{"x_min":0,"x_max":165,"ha":165,"o":"m 128 133 l 128 0 l 35 0 l 35 133 z"},"p":{"x_min":0,"x_max":258,"ha":258,"o":"m 7 496 l 103 496 l 103 456 q 126 503 167 503 q 236 503 236 329 l 236 303 l 236 180 q 236 -6 168 -6 q 122 -6 103 40 l 103 -75 l 132 -75 l 132 -171 l 7 -171 l 7 -75 l 33 -75 l 33 363 l 7 363 z m 167 221 l 167 292 q 167 370 136 370 q 106 370 106 288 l 105 248 l 105 220 q 105 127 135 127 q 166 127 166 188 z"},"X":{"x_min":0,"x_max":316,"ha":316,"o":"m 313 667 l 313 496 l 287 496 l 208 331 l 287 178 l 313 178 l 313 0 l 165 0 l 165 178 l 196 178 l 151 267 l 111 178 l 144 178 l 144 0 l 2 0 l 2 178 l 33 178 l 117 339 l 33 496 l 2 496 l 2 667 l 151 667 l 151 496 l 125 496 l 172 398 l 208 496 l 172 496 l 172 667 z"},"*":{"x_min":0,"x_max":319,"ha":319,"o":"m 189 676 l 189 606 l 254 645 l 289 586 l 220 546 l 289 500 l 254 444 l 189 486 l 189 409 l 126 409 l 126 486 l 62 451 l 30 507 l 95 546 l 30 586 l 67 645 l 126 606 l 126 676 z"},"Y":{"x_min":0,"x_max":319,"ha":319,"o":"m 312 667 l 312 496 l 283 496 l 208 296 l 208 178 l 241 178 l 241 0 l 79 0 l 79 178 l 115 178 l 115 296 l 33 496 l 7 496 l 7 667 l 156 667 l 156 496 l 130 496 l 166 381 l 208 496 l 177 496 l 177 667 z"},"c":{"x_min":0,"x_max":226,"ha":226,"o":"m 210 232 l 210 219 l 210 195 l 211 152 l 211 126 q 211 -6 119 -6 q 62 -6 42 40 q 21 85 21 212 l 21 303 q 21 503 118 503 q 210 503 210 356 q 210 324 205 277 l 146 277 l 146 294 l 146 312 l 146 324 l 143 351 q 139 370 122 370 q 95 370 95 254 q 95 127 121 127 q 146 127 146 182 l 146 204 l 146 221 l 146 232 z"},"!":{"x_min":0,"x_max":188,"ha":188,"o":"m 141 667 l 141 490 l 104 188 l 78 188 l 47 498 l 47 667 z m 141 133 l 141 0 l 47 0 l 47 133 z"},"/":{"x_min":0,"x_max":333,"ha":333,"o":"m 306 667 l 73 -171 l -3 -171 l 228 667 z"},"[":{"x_min":0,"x_max":258,"ha":258,"o":"m 74 667 l 199 667 l 199 526 l 144 526 l 144 -31 l 199 -31 l 199 -171 l 74 -171 z"},"6":{"x_min":0,"x_max":357,"ha":357,"o":"m 290 430 l 209 430 q 213 440 214 446 q 218 495 183 495 q 146 495 146 393 l 147 362 q 172 396 210 396 q 304 396 304 212 q 304 -11 178 -11 q 102 -11 77 40 q 52 91 52 246 l 52 362 l 53 404 l 55 456 q 55 678 180 678 q 297 678 297 521 q 297 470 290 430 z m 181 321 q 147 321 147 247 q 147 178 183 178 q 214 178 214 250 q 214 321 181 321 z"},"r":{"x_min":0,"x_max":218,"ha":218,"o":"m 17 496 l 112 496 l 112 436 q 128 503 161 503 q 211 503 211 388 q 211 312 206 260 l 149 260 q 153 288 153 300 q 153 370 129 370 q 112 370 112 306 l 112 140 l 142 140 l 142 0 l 17 0 l 17 140 l 42 140 l 42 363 l 17 363 z"},"2":{"x_min":0,"x_max":355,"ha":355,"o":"m 301 253 l 301 0 l 49 0 l 49 71 q 49 249 144 337 q 209 399 209 443 q 209 494 180 494 q 147 494 147 439 q 147 423 152 396 l 69 396 q 64 460 64 502 q 64 677 185 677 q 306 677 306 490 q 306 356 223 296 q 148 241 141 172 l 217 172 l 217 253 z"},"{":{"x_min":0,"x_max":355,"ha":355,"o":"m 174 248 q 200 228 200 201 l 200 14 q 200 -37 231 -37 l 258 -37 l 258 -171 l 221 -171 q 130 -171 130 -52 l 130 173 q 130 217 101 221 l 101 274 q 130 279 130 322 l 130 547 q 130 667 221 667 l 258 667 l 258 532 l 231 532 q 200 532 200 481 l 200 294 q 200 267 174 248 z"},"9":{"x_min":0,"x_max":355,"ha":355,"o":"m 67 240 l 148 240 q 149 225 149 223 q 149 178 177 178 q 209 178 209 251 l 209 298 q 178 269 146 269 q 53 269 53 442 q 53 575 80 626 q 107 677 177 677 q 303 677 303 453 l 303 232 q 303 93 278 41 q 253 -11 187 -11 q 59 -11 59 149 q 59 203 67 240 z m 175 494 q 143 494 143 431 q 143 344 178 344 q 210 344 210 418 q 210 494 175 494 z"}," ":{"x_min":0,"x_max":300,"ha":300,"o":""},"I":{"x_min":0,"x_max":200,"ha":200,"o":"m 181 667 l 181 496 l 146 496 l 146 178 l 181 178 l 181 0 l 20 0 l 20 178 l 53 178 l 53 496 l 20 496 l 20 667 z"},"H":{"x_min":0,"x_max":349,"ha":349,"o":"m 330 667 l 330 496 l 297 496 l 297 178 l 330 178 l 330 0 l 188 0 l 188 178 l 204 178 l 204 308 l 145 308 l 145 178 l 161 178 l 161 0 l 20 0 l 20 178 l 52 178 l 52 496 l 20 496 l 20 667 l 161 667 l 161 496 l 145 496 l 145 376 l 204 376 l 204 496 l 188 496 l 188 667 z"},"4":{"x_min":0,"x_max":354,"ha":354,"o":"m 270 667 l 270 328 l 300 328 l 300 259 l 270 259 l 270 178 l 300 178 l 300 0 l 139 0 l 139 178 l 177 178 l 177 259 l 47 259 l 47 370 l 169 667 z m 177 328 l 187 523 l 112 328 z"},"~":{"x_min":0,"x_max":479,"ha":479,"o":"m 42 581 l 0 613 q 52 725 136 725 q 173 725 251 685 q 318 650 344 650 q 396 650 437 727 l 479 695 q 429 583 337 583 q 306 583 214 631 q 162 658 132 658 q 83 658 42 581 z"},"D":{"x_min":0,"x_max":327,"ha":327,"o":"m 20 667 l 146 667 q 246 667 275 623 q 304 579 304 428 l 304 275 q 304 98 276 49 q 248 0 146 0 l 20 0 l 20 178 l 52 178 l 52 496 l 20 496 z m 146 496 l 146 178 l 160 179 q 191 179 198 192 q 206 206 206 261 l 206 396 q 206 464 198 480 q 190 496 158 496 z"},"^":{"x_min":0,"x_max":437,"ha":437,"o":"m 73 375 l 0 375 l 174 668 l 263 668 l 437 375 l 363 375 l 218 615 z"},"0":{"x_min":0,"x_max":357,"ha":357,"o":"m 306 493 l 306 185 q 306 -11 183 -11 q 104 -11 78 28 q 52 67 52 185 l 52 470 q 52 677 182 677 q 306 677 306 493 z m 145 420 l 145 253 l 145 232 l 146 208 q 151 178 178 178 q 212 178 212 259 l 212 420 l 212 448 q 212 500 179 500 q 145 500 145 420 z"},"F":{"x_min":0,"x_max":297,"ha":297,"o":"m 288 667 l 288 393 l 205 393 l 205 496 l 145 496 l 145 363 l 226 363 l 226 295 l 145 295 l 145 178 l 181 178 l 181 0 l 20 0 l 20 178 l 51 178 l 51 496 l 20 496 l 20 667 z"},"`":{"x_min":0,"x_max":500,"ha":500,"o":"m 250 655 l 299 567 l 257 567 l 153 655 z"},"k":{"x_min":0,"x_max":287,"ha":287,"o":"m 272 496 l 272 363 l 245 363 l 194 292 l 250 140 l 272 140 l 272 0 l 154 0 l 154 140 l 182 140 l 147 238 l 113 203 l 113 140 l 135 140 l 135 0 l 17 0 l 17 140 l 43 140 l 43 555 l 17 555 l 17 667 l 113 667 l 113 276 l 182 363 l 154 363 l 154 496 z"},"u":{"x_min":0,"x_max":270,"ha":270,"o":"m 234 496 l 234 140 l 262 140 l 262 0 l 169 0 l 169 61 q 151 -6 103 -6 q 34 -6 34 129 l 34 363 l 7 363 l 7 496 l 104 496 l 104 207 q 104 127 132 127 q 165 127 165 230 l 165 256 l 165 363 l 136 363 l 136 496 z"},"]":{"x_min":0,"x_max":258,"ha":258,"o":"m 184 667 l 184 -171 l 59 -171 l 59 -31 l 114 -31 l 114 526 l 59 526 l 59 667 z"},"U":{"x_min":0,"x_max":316,"ha":316,"o":"m 304 667 l 304 496 l 270 496 l 270 178 l 271 126 l 266 77 q 250 -11 159 -11 q 45 -11 45 135 l 45 186 l 45 496 l 13 496 l 13 667 l 161 667 l 161 496 l 139 496 l 139 271 q 139 178 167 178 q 200 178 200 274 l 200 496 l 179 496 l 179 667 z"},"o":{"x_min":0,"x_max":247,"ha":247,"o":"m 23 163 l 23 324 q 23 432 43 467 q 63 503 124 503 q 184 503 204 466 q 224 430 224 319 l 224 169 l 223 130 q 223 -6 122 -6 q 23 -6 23 163 z m 154 226 l 154 287 l 153 309 l 153 329 q 153 370 124 370 q 93 370 93 283 l 93 219 q 93 139 123 139 q 154 139 154 226 z"},"N":{"x_min":0,"x_max":377,"ha":377,"o":"m 363 667 l 363 496 l 331 496 l 331 0 l 229 0 l 116 526 l 116 178 l 154 178 l 154 0 l 20 0 l 20 178 l 53 178 l 53 496 l 20 496 l 20 667 l 167 667 l 267 201 l 267 496 l 229 496 l 229 667 z"},"+":{"x_min":0,"x_max":357,"ha":357,"o":"m 78 356 l 153 356 l 153 447 l 201 447 l 201 356 l 278 356 l 278 310 l 201 310 l 201 222 l 153 222 l 153 310 l 78 310 z"},"G":{"x_min":0,"x_max":315,"ha":315,"o":"m 274 667 l 274 400 l 186 400 l 188 455 q 188 494 158 494 q 119 494 119 322 q 119 183 156 183 q 186 183 186 249 l 186 271 l 155 271 l 155 368 l 310 368 l 310 271 l 274 271 l 274 0 l 229 0 l 210 56 q 208 51 208 48 q 183 -11 126 -11 q 63 -11 43 36 q 22 83 22 226 l 22 271 l 22 415 q 22 568 43 623 q 64 677 123 677 q 176 677 190 632 l 190 667 z"},"q":{"x_min":0,"x_max":254,"ha":254,"o":"m 223 496 l 223 -75 l 250 -75 l 250 -171 l 125 -171 l 125 -75 l 153 -75 l 153 29 q 125 -6 95 -6 q 21 -6 21 162 l 21 291 q 21 503 103 503 q 142 503 171 443 l 194 496 z m 91 297 l 91 202 q 91 127 118 127 q 152 127 152 244 q 152 370 118 370 q 91 370 91 297 z"},"d":{"x_min":0,"x_max":255,"ha":255,"o":"m 222 667 l 222 140 l 248 140 l 248 0 l 165 0 l 165 46 q 154 39 147 27 q 127 -6 93 -6 q 21 -6 21 167 l 21 309 q 21 503 92 503 q 131 503 152 455 l 152 555 l 124 555 l 124 667 z m 124 370 q 95 372 95 306 l 95 248 l 95 193 q 95 125 124 127 q 150 128 150 227 q 150 368 124 370 z"},"1":{"x_min":0,"x_max":357,"ha":357,"o":"m 230 667 l 230 178 l 268 178 l 268 0 l 102 0 l 102 178 l 137 178 l 137 465 l 102 465 l 102 615 q 163 615 183 667 z"},"5":{"x_min":0,"x_max":357,"ha":357,"o":"m 303 667 l 288 496 l 151 496 l 143 384 q 167 417 204 417 q 304 417 304 235 q 304 -11 181 -11 q 49 -11 49 158 q 49 216 57 254 l 59 267 l 143 267 q 139 242 139 227 q 139 178 167 178 q 204 178 204 257 q 204 333 170 333 q 150 333 132 304 l 59 309 l 89 667 z"}}}
